<svg width="12" height="16" viewBox="0 0 12 16" fill="none" xmlns="http://www.w3.org/2000/svg">
<path d="M11.0983 0H0.763006C0.531792 0 0.346821 0.0629921 0.208092 0.188976C0.0693642 0.314961 0 0.472441 0 0.661417V15.3071C0 15.4961 0.0751445 15.6588 0.225434 15.7953C0.375723 15.9318 0.554913 16 0.763006 16C0.924855 16 1.09827 15.9475 1.28324 15.8425L5.47977 12.5039C5.57225 12.4199 5.74566 12.378 6 12.378C6.16185 12.378 6.33526 12.4199 6.52023 12.5039L10.7514 15.8425C10.8439 15.9475 11.0173 16 11.2717 16C11.4566 16 11.6243 15.9318 11.7746 15.7953C11.9249 15.6588 12 15.4961 12 15.3071V0.661417C11.8382 0.220472 11.5376 0 11.0983 0ZM10.3699 13.8268L7.42197 11.4961C7.07514 11.1811 6.57803 11.0236 5.93064 11.0236C5.44509 11.0236 4.94798 11.1811 4.43931 11.4961L1.49133 13.8268V1.35433H10.3699V13.8268Z" fill="black"/>
</svg>
