<svg width="25" height="25" viewBox="0 0 25 25" fill="none" xmlns="http://www.w3.org/2000/svg">
<path d="M12.8255 13.4375C13.3778 13.4375 13.8255 12.9898 13.8255 12.4375C13.8255 11.8852 13.3778 11.4375 12.8255 11.4375C12.2732 11.4375 11.8255 11.8852 11.8255 12.4375C11.8255 12.9898 12.2732 13.4375 12.8255 13.4375Z" stroke="black" stroke-width="2" stroke-linecap="round" stroke-linejoin="round"/>
<path d="M19.8255 13.4375C20.3778 13.4375 20.8255 12.9898 20.8255 12.4375C20.8255 11.8852 20.3778 11.4375 19.8255 11.4375C19.2732 11.4375 18.8255 11.8852 18.8255 12.4375C18.8255 12.9898 19.2732 13.4375 19.8255 13.4375Z" stroke="black" stroke-width="2" stroke-linecap="round" stroke-linejoin="round"/>
<path d="M5.8255 13.4375C6.37779 13.4375 6.8255 12.9898 6.8255 12.4375C6.8255 11.8852 6.37779 11.4375 5.8255 11.4375C5.27322 11.4375 4.8255 11.8852 4.8255 12.4375C4.8255 12.9898 5.27322 13.4375 5.8255 13.4375Z" stroke="black" stroke-width="2" stroke-linecap="round" stroke-linejoin="round"/>
</svg>
